# xmcd
#
# Track frame offsets: 
#        150
#        18128
#        36957
#        52156
#        72867
#        87886
#        105399
#        121486
#        136096
#        151871
#        168846
#        183129
#        197259
#        211472
#
# Disc length: 2982 seconds
#
# Revision: 1
# Processed by: cddbd v1.5.1PL0 Copyright (c) Steve Scherf et al.
# Submitted via: ExactAudioCopy v0.90b4
#
DISCID=ac0ba40e
DTITLE=Branden Hart - Branden Hart
DYEAR=2004
DGENRE=Country
TTITLE0=True
TTITLE1=Summer In Wichita
TTITLE2=That's A Good Thing
TTITLE3=How Can I Resist
TTITLE4=The One You Love
TTITLE5=Hold You Again
TTITLE6=Come With Me
TTITLE7=To Feel It Again
TTITLE8=Time Flies
TTITLE9=Leavin'
TTITLE10=Good To You
TTITLE11=I've Seen Your Sunshine
TTITLE12=Let's Do It
TTITLE13=That's How She Talked Me Into This
EXTD=Branden Hart\n
EXTT0=
EXTT1=
EXTT2=
EXTT3=
EXTT4=
EXTT5=
EXTT6=
EXTT7=
EXTT8=
EXTT9=
EXTT10=
EXTT11=
EXTT12=
EXTT13=
PLAYORDER=
